<?xml version="1.0" standalone="no"?>
<!DOCTYPE svg PUBLIC "-//W3C//DTD SVG 20010904//EN"
 "http://www.w3.org/TR/2001/REC-SVG-20010904/DTD/svg10.dtd">
<svg version="1.0" xmlns="http://www.w3.org/2000/svg"
 width="660.000000pt" height="660.000000pt" viewBox="0 0 660.000000 660.000000"
 preserveAspectRatio="xMidYMid meet">
<metadata>
Created by potrace 1.14, written by Peter Selinger 2001-2017
</metadata>
<g transform="translate(0.000000,660.000000) scale(0.100000,-0.100000)"
fill="#000000" stroke="none">
<path d="M4166 4505 c-31 -13 -64 -29 -74 -36 -9 -7 -19 -15 -21 -16 -2 -2 7
-12 21 -22 32 -26 55 -100 39 -130 -25 -46 -85 -7 -106 67 l-10 36 -41 -64
c-22 -36 -53 -94 -68 -130 -63 -145 -91 -195 -146 -254 -32 -33 -73 -69 -92
-79 -32 -17 -32 -17 -8 0 77 56 138 140 180 249 l29 75 -82 -6 c-45 -3 -89 -8
-97 -10 -8 -2 -40 -7 -70 -10 -30 -3 -62 -8 -70 -10 -8 -2 -31 -7 -50 -10 -19
-3 -42 -8 -50 -10 -8 -2 -30 -7 -49 -10 -59 -10 -242 -63 -346 -100 -76 -28
-249 -99 -262 -109 -4 -3 108 -150 140 -184 18 -19 55 -47 82 -63 54 -31 55
-40 2 -13 -64 33 -119 79 -177 149 -69 84 -166 160 -305 240 -129 75 -202 107
-333 149 -59 18 -132 44 -162 56 -106 43 -340 34 -503 -21 -90 -30 -289 -129
-382 -189 -148 -97 -250 -193 -364 -345 -141 -187 -208 -327 -247 -515 -13
-63 -16 -198 -5 -238 11 -38 15 -42 34 -36 28 8 107 68 178 136 352 331 473
422 649 487 53 19 276 71 370 86 25 4 54 9 65 11 20 4 50 8 143 19 218 28 342
2 387 -80 l16 -30 -23 28 c-13 15 -28 27 -33 27 -8 0 -71 -63 -401 -402 -154
-158 -180 -213 -133 -279 20 -28 113 -112 189 -171 67 -51 205 -159 220 -171
125 -102 290 -185 401 -202 74 -12 254 -6 341 10 103 20 503 28 598 12 25 -4
68 -12 95 -17 28 -5 68 -12 90 -15 22 -4 63 -10 90 -15 86 -14 361 -5 445 15
230 55 430 186 528 349 37 61 77 168 88 235 7 41 6 44 -12 37 -13 -5 -8 4 14
26 l33 33 127 -1 c107 -1 146 -6 247 -32 238 -62 481 -213 652 -405 75 -84
125 -222 153 -417 6 -41 12 -86 15 -100 2 -14 7 -50 10 -80 12 -108 29 -150
62 -150 65 0 161 116 212 255 85 234 80 479 -15 683 -78 171 -206 305 -374
394 -177 94 -551 221 -720 245 -66 10 -259 9 -315 -1 -53 -9 -211 -54 -252
-71 -57 -24 -36 -6 27 23 l60 27 -26 55 c-14 30 -55 99 -91 153 l-65 98 -52
-93 c-72 -131 -146 -234 -233 -328 -77 -82 -169 -157 -180 -146 -4 3 -2 6 4 6
34 0 191 178 275 311 42 65 130 233 146 275 5 16 24 67 41 114 17 47 35 110
41 140 6 30 13 69 16 85 9 48 11 131 3 151 -4 11 -8 13 -8 7 -1 -20 -39 -53
-60 -53 -54 0 -35 148 21 166 22 7 13 27 -34 73 -56 56 -166 91 -295 96 -66 2
-92 -2 -137 -20z"/>
<path d="M1700 2760 c-230 -31 -269 -51 -435 -218 -151 -151 -207 -260 -157
-305 96 -87 336 -67 673 56 101 37 322 130 401 169 l48 23 -190 148 c-104 81
-195 146 -202 146 -7 -1 -69 -9 -138 -19z"/>
<path d="M3138 2352 c-27 -2 -39 -9 -44 -25 -4 -12 -36 -50 -72 -85 l-65 -64
6 -96 c14 -247 167 -458 324 -447 83 5 142 75 212 251 38 94 129 429 120 439
-5 4 -35 10 -114 20 -56 8 -310 13 -367 7z"/>
</g>
</svg>
